<svg xmlns="http://www.w3.org/2000/svg" version="1.1" width="160" height="26" viewBox="0 0 160 26"><defs><linearGradient id="bb" x1="0" y1="0" x2="0" y2="1"><stop offset="0" stop-color="#33208f"/><stop offset="0.5" stop-color="#2a1b78"/><stop offset="1" stop-color="#1e1456"/></linearGradient></defs><rect x="0.5" y="0.5" width="159" height="25" rx="5" fill="url(#bb)" stroke="#8b5cf6"/><rect x="1" y="1" width="3.5" height="24" rx="1.75" fill="#fbbf24"/><path d="M13.0 7.4h6.4v1.6h-6.4zM13.0 9.0h1.6v1.6h-1.6zM19.4 9.0h1.6v1.6h-1.6zM13.0 10.6h1.6v1.6h-1.6zM19.4 10.6h1.6v1.6h-1.6zM13.0 12.2h1.6v1.6h-1.6zM19.4 12.2h1.6v1.6h-1.6zM13.0 13.8h1.6v1.6h-1.6zM19.4 13.8h1.6v1.6h-1.6zM13.0 15.4h1.6v1.6h-1.6zM19.4 15.4h1.6v1.6h-1.6zM13.0 17.0h6.4v1.6h-6.4zM24.2 7.4h4.8v1.6h-4.8zM22.6 9.0h1.6v1.6h-1.6zM29.0 9.0h1.6v1.6h-1.6zM22.6 10.6h1.6v1.6h-1.6zM29.0 10.6h1.6v1.6h-1.6zM22.6 12.2h8.0v1.6h-8.0zM22.6 13.8h1.6v1.6h-1.6zM29.0 13.8h1.6v1.6h-1.6zM22.6 15.4h1.6v1.6h-1.6zM29.0 15.4h1.6v1.6h-1.6zM22.6 17.0h1.6v1.6h-1.6zM29.0 17.0h1.6v1.6h-1.6zM32.2 7.4h1.6v1.6h-1.6zM38.6 7.4h1.6v1.6h-1.6zM32.2 9.0h1.6v1.6h-1.6zM38.6 9.0h1.6v1.6h-1.6zM33.8 10.6h1.6v1.6h-1.6zM37.0 10.6h1.6v1.6h-1.6zM35.4 12.2h1.6v1.6h-1.6zM35.4 13.8h1.6v1.6h-1.6zM35.4 15.4h1.6v1.6h-1.6zM35.4 17.0h1.6v1.6h-1.6zM51.4 7.4h1.6v1.6h-1.6zM57.8 7.4h1.6v1.6h-1.6zM51.4 9.0h1.6v1.6h-1.6zM57.8 9.0h1.6v1.6h-1.6zM53.0 10.6h1.6v1.6h-1.6zM56.2 10.6h1.6v1.6h-1.6zM54.6 12.2h1.6v1.6h-1.6zM53.0 13.8h1.6v1.6h-1.6zM56.2 13.8h1.6v1.6h-1.6zM51.4 15.4h1.6v1.6h-1.6zM57.8 15.4h1.6v1.6h-1.6zM51.4 17.0h1.6v1.6h-1.6zM57.8 17.0h1.6v1.6h-1.6zM64.2 7.4h1.6v1.6h-1.6zM62.6 9.0h3.2v1.6h-3.2zM64.2 10.6h1.6v1.6h-1.6zM64.2 12.2h1.6v1.6h-1.6zM64.2 13.8h1.6v1.6h-1.6zM64.2 15.4h1.6v1.6h-1.6zM62.6 17.0h4.8v1.6h-4.8zM72.2 7.4h4.8v1.6h-4.8zM70.6 9.0h1.6v1.6h-1.6zM77.0 9.0h1.6v1.6h-1.6zM70.6 10.6h1.6v1.6h-1.6zM75.4 10.6h3.2v1.6h-3.2zM70.6 12.2h1.6v1.6h-1.6zM73.8 12.2h1.6v1.6h-1.6zM77.0 12.2h1.6v1.6h-1.6zM70.6 13.8h3.2v1.6h-3.2zM77.0 13.8h1.6v1.6h-1.6zM70.6 15.4h1.6v1.6h-1.6zM77.0 15.4h1.6v1.6h-1.6zM72.2 17.0h4.8v1.6h-4.8z" fill="#ffffff" shape-rendering="crispEdges"/><rect x="129" y="10" width="6" height="6" rx="1.5" fill="#fbbf24"/><rect x="138" y="10" width="6" height="6" rx="1.5" fill="#fbbf24"/><rect x="147" y="10" width="6" height="6" rx="1.5" fill="#fbbf24"/></svg>